<svg width="99" height="94" viewBox="0 0 99 94" fill="none" xmlns="http://www.w3.org/2000/svg">
<path d="M98.0631 36.0577C97.7557 35.1676 97.1967 34.3858 96.4539 33.807C95.711 33.2283 94.8162 32.8775 93.8779 32.7972L66.188 28.7581L53.7786 3.59871C53.3801 2.77594 52.7579 2.08205 51.9833 1.59654C51.2087 1.11102 50.313 0.853516 49.3988 0.853516C48.4846 0.853516 47.5889 1.11102 46.8143 1.59654C46.0397 2.08205 45.4175 2.77594 45.0191 3.59871L32.6097 28.7094L4.91975 32.7972C4.01908 32.9253 3.17233 33.3032 2.47559 33.8881C1.77884 34.473 1.26 35.2415 0.977946 36.1064C0.719758 36.9516 0.696588 37.8511 0.910924 38.7084C1.12526 39.5658 1.56901 40.3486 2.19455 40.9728L22.2929 60.4385L17.4265 88.0798C17.2527 88.9921 17.3437 89.9351 17.6886 90.7974C18.0335 91.6598 18.618 92.4054 19.373 92.9462C20.1089 93.4723 20.9769 93.7829 21.8795 93.843C22.7821 93.9032 23.6836 93.7106 24.4828 93.2869L49.3988 80.2935L74.2176 93.3355C74.9006 93.7208 75.672 93.9221 76.4561 93.9195C77.487 93.9232 78.4924 93.5994 79.3273 92.9949C80.0823 92.454 80.6668 91.7084 81.0117 90.8461C81.3567 89.9838 81.4476 89.0408 81.2739 88.1284L76.4075 60.4872L96.5058 41.0215C97.2084 40.4262 97.7277 39.6438 98.0034 38.7652C98.279 37.8865 98.2997 36.9477 98.0631 36.0577ZM68.1346 55.5234C67.5639 56.0754 67.1369 56.7587 66.8909 57.5137C66.6449 58.2686 66.5874 59.0723 66.7233 59.8545L70.2271 80.2448L51.9294 70.512C51.2253 70.1371 50.4398 69.941 49.6422 69.941C48.8445 69.941 48.059 70.1371 47.3549 70.512L29.0572 80.2448L32.561 59.8545C32.697 59.0723 32.6394 58.2686 32.3934 57.5137C32.1475 56.7587 31.7205 56.0754 31.1498 55.5234L16.5505 40.9242L37.0381 37.9556C37.8265 37.846 38.5759 37.5446 39.2207 37.078C39.8655 36.6114 40.386 35.9937 40.7366 35.2791L49.3988 16.738L58.5477 35.3278C58.8983 36.0424 59.4188 36.66 60.0636 37.1267C60.7084 37.5933 61.4578 37.8946 62.2462 38.0043L82.7338 40.9728L68.1346 55.5234Z" fill="#231F20"/>
</svg>
